<svg width="140" height="36" viewBox="0 0 140 36" fill="none" xmlns="http://www.w3.org/2000/svg">
<path d="M6.7855 3.72976C4.95325 3.5678 3.13434 4.1772 1.71595 5.42806C1.14272 6.02274 0.693822 6.74054 0.399025 7.53429C0.104228 8.32803 -0.0298519 9.17959 0.00562531 10.0328V25.7089C-0.0303331 26.5699 0.10642 27.4293 0.406668 28.2291C0.706915 29.029 1.16373 29.7508 1.74643 30.3463C3.19341 31.5609 5.01199 32.1548 6.84664 32.0119C8.67781 32.1635 10.4933 31.5554 11.9163 30.3137C12.4895 29.719 12.9383 29.0011 13.2331 28.2074C13.5279 27.4137 13.662 26.5621 13.6265 25.7089V22.737H9.53418V25.7089C9.55225 26.0222 9.50704 26.3361 9.40164 26.6291C9.29625 26.9221 9.13312 27.1874 8.92334 27.4071C8.32468 27.8771 7.58641 28.0977 6.84664 28.0276C6.08654 28.1142 5.32368 27.8927 4.70881 27.4071C4.49565 27.1901 4.33027 26.9252 4.22463 26.6315C4.11899 26.3378 4.0758 26.0227 4.09806 25.7089V10.0328C4.07604 9.72186 4.11635 9.40956 4.21643 9.11668C4.3165 8.82379 4.47404 8.55711 4.67833 8.3346C5.28511 7.85685 6.03555 7.63584 6.7855 7.71408C7.54561 7.62753 8.30847 7.84895 8.92334 8.3346C9.13312 8.55424 9.29625 8.81956 9.40164 9.11259C9.50704 9.40562 9.55225 9.71944 9.53418 10.0328V14.5724H13.6265V10.0328C13.6602 9.17393 13.5193 8.31752 13.2135 7.52253C12.9077 6.72754 12.4442 6.01298 11.8552 5.42806C10.4321 4.18636 8.61667 3.57816 6.7855 3.72976Z" fill="#282828"/>
<path d="M54.2915 20.8757L47.4811 4.35059H43.7858V31.457H47.8781V14.8992L54.658 31.457H58.3839V4.35059H54.2915V20.8757Z" fill="#282828"/>
<path d="M63.2212 31.457H67.3135V19.7H73.3605V15.7157H67.3135V8.30225H74.8264V4.35059H63.2212V31.457Z" fill="#282828"/>
<path d="M83.7562 4.35059H79.6638V31.457H90.475V27.4727H83.7562V4.35059Z" fill="#282828"/>
<path d="M95.3127 8.30225H97.1451V27.4727H95.3127V31.457H103.07V27.4727H101.238V8.30225H103.07V4.35059H95.3127V8.30225Z" fill="#282828"/>
<path d="M114.664 3.7298C112.842 3.57303 111.034 4.18231 109.625 5.42809C109.047 6.01892 108.595 6.73614 108.3 7.53084C108.005 8.32553 107.874 9.17891 107.915 10.0328V25.7089C107.879 26.57 108.016 27.4293 108.316 28.2292C108.616 29.029 109.073 29.7509 109.656 30.3464C111.1 31.5667 112.921 32.1613 114.756 32.012C116.587 32.1636 118.403 31.5555 119.826 30.3138C120.399 29.7191 120.848 29.0012 121.142 28.2074C121.437 27.4137 121.571 26.5621 121.536 25.7089V22.737H117.444V25.7089C117.462 26.0223 117.416 26.3361 117.311 26.6291C117.206 26.9222 117.042 27.1875 116.833 27.4071C116.234 27.8771 115.496 28.0977 114.756 28.0276C113.996 28.1142 113.233 27.8928 112.618 27.4071C112.405 27.1902 112.24 26.9252 112.134 26.6315C112.028 26.3378 111.985 26.0227 112.007 25.7089V10.0328C111.985 9.7219 112.026 9.4096 112.126 9.11671C112.226 8.82382 112.383 8.55715 112.588 8.33464C113.186 7.86466 113.925 7.64406 114.664 7.71412C115.435 7.61912 116.21 7.84096 116.833 8.33464C117.042 8.55428 117.206 8.8196 117.311 9.11263C117.416 9.40565 117.462 9.71948 117.444 10.0328V14.5724H121.536V10.0328C121.57 9.17397 121.429 8.31755 121.123 7.52256C120.817 6.72757 120.354 6.01302 119.765 5.42809C118.332 4.18135 116.505 3.57303 114.664 3.7298Z" fill="#282828"/>
<path d="M126.379 4.35059V8.30225H131.143V31.457H135.236V8.30225H140V4.35059H126.379Z" fill="#282828"/>
<path d="M18.4236 36H25.9961V32.3203H22.0123V3.67966H26.0619V0H18.4236V36Z" fill="#DB394C"/>
<path d="M31.2968 0V3.67966H35.3136V32.3203H31.2639V36H38.9023V0H31.2968Z" fill="#DB394C"/>
<path d="M30.4737 10.3562H26.8521V25.3783H30.4737V10.3562Z" fill="#DB394C"/>
</svg>
