<svg width="141" height="37" viewBox="0 0 141 37" fill="none" xmlns="http://www.w3.org/2000/svg">
<path d="M7.76011 3.9038C5.92786 3.74184 4.10895 4.35124 2.69056 5.6021C2.11733 6.19678 1.66843 6.91459 1.37363 7.70833C1.07884 8.50207 0.944757 9.35363 0.980235 10.2068V25.8829C0.944276 26.744 1.08103 27.6033 1.38128 28.4032C1.68152 29.203 2.13834 29.9249 2.72104 30.5204C4.16802 31.7349 5.9866 32.3289 7.82125 32.186C9.65242 32.3376 11.4679 31.7295 12.8909 30.4878C13.4641 29.8931 13.9129 29.1752 14.2077 28.3814C14.5025 27.5877 14.6366 26.7361 14.6011 25.8829V22.911H10.5088V25.8829C10.5269 26.1963 10.4816 26.5101 10.3763 26.8031C10.2709 27.0962 10.1077 27.3615 9.89795 27.5811C9.29929 28.0511 8.56102 28.2717 7.82125 28.2016C7.06115 28.2882 6.29829 28.0668 5.68342 27.5811C5.47026 27.3642 5.30488 27.0992 5.19924 26.8055C5.0936 26.5118 5.05041 26.1967 5.07267 25.8829V10.2068C5.05065 9.89591 5.09096 9.58361 5.19104 9.29072C5.29111 8.99783 5.44865 8.73115 5.65294 8.50864C6.25972 8.0309 7.01016 7.80989 7.76011 7.88813C8.52022 7.80157 9.28308 8.023 9.89795 8.50864C10.1077 8.72828 10.2709 8.99361 10.3763 9.28663C10.4816 9.57966 10.5269 9.89349 10.5088 10.2068V14.7464H14.6011V10.2068C14.6348 9.34798 14.4939 8.49156 14.1881 7.69657C13.8823 6.90158 13.4188 6.18702 12.8298 5.6021C11.4067 4.3604 9.59128 3.7522 7.76011 3.9038Z" fill="white"/>
<path d="M55.2655 21.0496L48.4551 4.52451H44.7598V31.631H48.8521V15.0732L55.632 31.631H59.3579V4.52451H55.2655V21.0496Z" fill="white"/>
<path d="M64.1953 31.631H68.2877V19.8739H74.3346V15.8896H68.2877V8.47617H75.8005V4.52451H64.1953V31.631Z" fill="white"/>
<path d="M84.731 4.52451H80.6387V31.631H91.4498V27.6466H84.731V4.52451Z" fill="white"/>
<path d="M96.2871 8.47617H98.1195V27.6466H96.2871V31.631H104.044V27.6466H102.212V8.47617H104.044V4.52451H96.2871V8.47617Z" fill="white"/>
<path d="M115.64 3.90374C113.817 3.74697 112.01 4.35626 110.601 5.60204C110.022 6.19287 109.57 6.91008 109.275 7.70478C108.98 8.49948 108.849 9.35285 108.89 10.2068V25.8829C108.854 26.7439 108.991 27.6032 109.291 28.4031C109.592 29.203 110.048 29.9248 110.631 30.5203C112.075 31.7406 113.896 32.3352 115.731 32.1859C117.562 32.3375 119.378 31.7294 120.801 30.4877C121.374 29.893 121.823 29.1751 122.118 28.3814C122.412 27.5876 122.547 26.7361 122.511 25.8829V22.9109H118.419V25.8829C118.437 26.1962 118.392 26.51 118.286 26.8031C118.181 27.0961 118.018 27.3614 117.808 27.5811C117.209 28.051 116.471 28.2716 115.731 28.2016C114.971 28.2881 114.208 28.0667 113.593 27.5811C113.38 27.3641 113.215 27.0992 113.109 26.8055C113.004 26.5118 112.96 26.1966 112.983 25.8829V10.2068C112.961 9.89584 113.001 9.58355 113.101 9.29066C113.201 8.99777 113.359 8.73109 113.563 8.50858C114.162 8.0386 114.9 7.818 115.64 7.88806C116.41 7.79306 117.185 8.01491 117.808 8.50858C118.018 8.72822 118.181 8.99354 118.286 9.28657C118.392 9.5796 118.437 9.89342 118.419 10.2068V14.7463H122.511V10.2068C122.545 9.34791 122.404 8.4915 122.098 7.69651C121.792 6.90152 121.329 6.18696 120.74 5.60204C119.307 4.35529 117.481 3.74697 115.64 3.90374Z" fill="white"/>
<path d="M127.354 4.52451V8.47617H132.118V31.631H136.21V8.47617H140.974V4.52451H127.354Z" fill="white"/>
<path d="M19.3984 36.1741H26.9709V32.4944H22.9871V3.85375H27.0368V0.174088H19.3984V36.1741Z" fill="#DB394C"/>
<path d="M32.2717 0.174088V3.85375H36.2884V32.4944H32.2388V36.1741H39.8771V0.174088H32.2717Z" fill="#DB394C"/>
<path d="M31.4486 10.5303H27.827V25.5524H31.4486V10.5303Z" fill="#DB394C"/>
</svg>
